<svg width="24" height="22" viewBox="0 0 24 22" fill="none" xmlns="http://www.w3.org/2000/svg">
<path d="M10.2275 1.02365L0.274488 18.2615C0.0947018 18.5728 3.32746e-05 18.9259 8.77004e-09 19.2854C-3.3257e-05 19.6449 0.0945699 19.998 0.274298 20.3093C0.454027 20.6207 0.712546 20.8792 1.02387 21.0589C1.33519 21.2386 1.68834 21.3332 2.04782 21.3332H21.9522C22.3117 21.3332 22.6648 21.2386 22.9761 21.0589C23.2875 20.8792 23.546 20.6207 23.7257 20.3093C23.9054 19.998 24 19.6449 24 19.2854C24 18.9259 23.9053 18.5728 23.7255 18.2615L13.7736 1.02365C13.5939 0.712422 13.3354 0.453974 13.0242 0.274286C12.713 0.0945978 12.3599 0 12.0005 0C11.6412 0 11.2881 0.0945978 10.9769 0.274286C10.6656 0.453974 10.4072 0.712422 10.2275 1.02365Z" fill="#FFC107"/>
<path d="M12.1304 6.34021H11.8708C11.2316 6.34021 10.7134 6.85839 10.7134 7.49759V13.0297C10.7134 13.6689 11.2316 14.187 11.8708 14.187H12.1304C12.7696 14.187 13.2878 13.6689 13.2878 13.0297V7.49759C13.2878 6.85839 12.7696 6.34021 12.1304 6.34021Z" fill="#343A40"/>
<path d="M12.0006 18.5745C12.7115 18.5745 13.2878 17.9982 13.2878 17.2873C13.2878 16.5764 12.7115 16.0001 12.0006 16.0001C11.2897 16.0001 10.7134 16.5764 10.7134 17.2873C10.7134 17.9982 11.2897 18.5745 12.0006 18.5745Z" fill="#343A40"/>
</svg>
